<?xml version="1.0" encoding="UTF-8"?>
<svg xmlns="http://www.w3.org/2000/svg" xmlns:xlink="http://www.w3.org/1999/xlink" width="" height="" viewBox="0 0 150 149.999998" version="1.2">
<defs>
<clipPath id="clip1">
  <path d="M 12.050781 13 L 138.050781 13 L 138.050781 138 L 12.050781 138 Z M 12.050781 13 "/>
</clipPath>
</defs>
<g id="surface1">
<rect x="0" y="0" width="150" height="149.999998" style="fill:rgb(100%,100%,100%);fill-opacity:1;stroke:none;"/>
<rect x="0" y="0" width="150" height="149.999998" style="fill:rgb(100%,100%,100%);fill-opacity:1;stroke:none;"/>
<rect x="0" y="0" width="150" height="149.999998" style="fill:rgb(100%,100%,100%);fill-opacity:1;stroke:none;"/>
<g clip-path="url(#clip1)" clip-rule="nonzero">
<path style=" stroke:none;fill-rule:nonzero;fill:rgb(0%,0%,0%);fill-opacity:1;" d="M 75.101562 13.101562 C 40.28125 13.101562 12.050781 41.332031 12.050781 76.152344 C 12.050781 105.699219 32.394531 130.421875 59.824219 137.261719 C 59.527344 136.410156 59.339844 135.421875 59.339844 134.199219 L 59.339844 123.421875 C 56.78125 123.421875 52.492188 123.421875 51.414062 123.421875 C 47.101562 123.421875 43.265625 121.566406 41.40625 118.121094 C 39.339844 114.289062 38.984375 108.429688 33.867188 104.847656 C 32.347656 103.65625 33.503906 102.292969 35.253906 102.476562 C 38.484375 103.390625 41.164062 105.609375 43.6875 108.898438 C 46.199219 112.191406 47.378906 112.9375 52.070312 112.9375 C 54.347656 112.9375 57.753906 112.808594 60.957031 112.304688 C 62.679688 107.925781 65.660156 103.894531 69.300781 101.996094 C 48.304688 99.835938 38.285156 89.390625 38.285156 75.207031 C 38.285156 69.101562 40.886719 63.195312 45.304688 58.21875 C 43.855469 53.28125 42.03125 43.207031 45.863281 39.371094 C 55.308594 39.371094 61.019531 45.5 62.390625 47.152344 C 67.101562 45.539062 72.269531 44.625 77.703125 44.625 C 83.148438 44.625 88.339844 45.539062 93.054688 47.164062 C 94.410156 45.519531 100.128906 39.371094 109.597656 39.371094 C 113.445312 43.214844 111.597656 53.328125 110.132812 58.257812 C 114.527344 63.222656 117.109375 69.113281 117.109375 75.207031 C 117.109375 89.378906 107.105469 99.820312 86.140625 101.988281 C 91.910156 105 96.121094 113.460938 96.121094 119.832031 L 96.121094 134.199219 C 96.121094 134.746094 96 135.140625 95.9375 135.605469 C 120.503906 126.996094 138.15625 103.664062 138.15625 76.152344 C 138.15625 41.332031 109.921875 13.101562 75.101562 13.101562 Z M 75.101562 13.101562 "/>
</g>
</g>
</svg>
