<?xml version="1.0" encoding="UTF-8"?>
<svg xmlns="http://www.w3.org/2000/svg" xmlns:xlink="http://www.w3.org/1999/xlink" width="" height="" viewBox="0 0 150 149.999998" version="1.2">
<defs>
<clipPath id="clip1">
  <path d="M 12.980469 12.980469 L 136.449219 12.980469 L 136.449219 136.449219 L 12.980469 136.449219 Z M 12.980469 12.980469 "/>
</clipPath>
</defs>
<g id="surface1">
<rect x="0" y="0" width="150" height="149.999998" style="fill:rgb(100%,100%,100%);fill-opacity:1;stroke:none;"/>
<rect x="0" y="0" width="150" height="149.999998" style="fill:rgb(100%,100%,100%);fill-opacity:1;stroke:none;"/>
<rect x="0" y="0" width="150" height="149.999998" style="fill:rgb(100%,100%,100%);fill-opacity:1;stroke:none;"/>
<g clip-path="url(#clip1)" clip-rule="nonzero">
<path style=" stroke:none;fill-rule:nonzero;fill:rgb(0%,0%,0%);fill-opacity:1;" d="M 122.730469 12.980469 L 26.699219 12.980469 C 19.121094 12.980469 12.980469 19.121094 12.980469 26.699219 L 12.980469 122.730469 C 12.980469 130.3125 19.121094 136.449219 26.699219 136.449219 L 122.730469 136.449219 C 130.3125 136.449219 136.449219 130.3125 136.449219 122.730469 L 136.449219 26.699219 C 136.449219 19.121094 130.3125 12.980469 122.730469 12.980469 Z M 54.136719 109.011719 L 36.832031 109.011719 L 36.832031 60.996094 L 54.136719 60.996094 Z M 45.179688 52.195312 C 39.890625 52.195312 36.359375 48.671875 36.359375 43.964844 C 36.359375 39.257812 39.882812 35.734375 45.761719 35.734375 C 51.050781 35.734375 54.582031 39.257812 54.582031 43.964844 C 54.582031 48.671875 51.058594 52.195312 45.179688 52.195312 Z M 115.871094 109.011719 L 99.121094 109.011719 L 99.121094 82.769531 C 99.121094 75.511719 94.65625 73.835938 92.980469 73.835938 C 91.308594 73.835938 85.726562 74.957031 85.726562 82.769531 C 85.726562 83.886719 85.726562 109.011719 85.726562 109.011719 L 68.417969 109.011719 L 68.417969 60.996094 L 85.726562 60.996094 L 85.726562 67.699219 C 87.953125 63.789062 92.417969 60.996094 100.796875 60.996094 C 109.171875 60.996094 115.871094 67.699219 115.871094 82.769531 Z M 115.871094 109.011719 "/>
</g>
</g>
</svg>
