<?xml version="1.0" encoding="utf-8"?>
<!-- Generator: Adobe Illustrator 25.2.3, SVG Export Plug-In . SVG Version: 6.00 Build 0)  -->
<svg version="1.1" xmlns="http://www.w3.org/2000/svg" xmlns:xlink="http://www.w3.org/1999/xlink" x="0px" y="0px"
	 viewBox="0 0 5113.2 3045.1" style="enable-background:new 0 0 5113.2 3045.1;" xml:space="preserve">
<style type="text/css">
	.st0{fill:#43434F;}
	.st1{fill:#393943;}
	.st2{fill:#F04E3E;}
	.st3{fill:#FCCA64;}
	.st4{fill:#43ADA5;}
	.st5{fill:#FFFFFF;}
	.st6{fill:#FFFFFF;stroke:#43434F;stroke-miterlimit:10;}
	.st7{fill:#282830;}
</style>
<g id="Layer_1">
	
		<image style="display:none;overflow:visible;" width="500" height="500" xlink:href="3AD2368A.png"  transform="matrix(0.75 0 0 0.75 219.8707 0.4945)">
	</image>
	<g id="Layer_2">
		<g>
			<path class="st0" d="M1439.9,252.1c0-99,113.8-103.9,113.8-103.9s1781.6,0,1930.1,0c94.2,0,123.7,83.9,123.7,163.3
				c0,73.6-0.1,1019.3,0,1088.8c0.2,91.6-91.6,153.4-140.3,148.5c-106.4-9.9-1760.1,5-1883.8,5s-138.6-59.4-143.5-133.6
				C1434.9,1345.8,1439.9,252.1,1439.9,252.1z"/>
			<path class="st1" d="M1746.7,1234.4c19.8-39.6,79-72.4,155.9-72.8c89.1-0.4,1185.3-0.5,1264.4,0.1c34.7,0.2,91.6,38,96.5,102.4
				c4.9,64.3,34.6,281.5,34.6,281.5l-1571.3,8L1746.7,1234.4z"/>
			<path class="st2" d="M1592.3,808.8h1842c0,0,0,175.7,0,200.4c0,24.7-1,29.7-25.7,32.2c-24.7,2.5-1771.7,0-1791.5,0
				c-19.8,0-25.2-21-24.7-44.5C1592.6,984.3,1592.3,808.8,1592.3,808.8z"/>
			<path class="st3" d="M1592.3,604.1h1842c0,0,0,175.7,0,200.4c0,24.7-1,29.7-25.8,32.2c-24.7,2.5-1771.7,0-1791.5,0
				c-19.8,0-24.8,1.1-24.7-44.5C1592.3,779.5,1592.3,604.1,1592.3,604.1z"/>
			<path class="st4" d="M3434.3,618.7h-1842c0,0,0-175.7,0-200.4c0-24.7,1-29.7,25.8-32.2s1771.7,0,1791.5,0s24.8-1.1,24.7,44.5
				C3434.3,443.3,3434.3,618.7,3434.3,618.7z"/>
			<path class="st0" d="M1946.2,490.6c36.1,0,1102.3-1.2,1125.2,0s50.5,3.6,50.5,67.4s0,298.4,0,324.9s-13.2,51.7-51.7,51.7
				s-1118,0-1118,0s-54.8,3.6-54.8-54.8s0-311.1,0-344.8S1914.9,490.6,1946.2,490.6z"/>
			<path class="st5" d="M2741.3,809.3h-467.4c-0.9,0-1.6-0.7-1.6-1.6V617.1c0-0.9,0.7-1.6,1.6-1.6h467.4c0.9,0,1.6,0.7,1.6,1.6
				v190.6C2742.9,808.6,2742.2,809.3,2741.3,809.3z"/>
			<circle class="st6" cx="2925.4" cy="705.8" r="101.1"/>
			<circle class="st6" cx="2090.1" cy="706.3" r="101.1"/>
			<circle class="st5" cx="1947.7" cy="1412.1" r="50.2"/>
			<circle class="st5" cx="2140.7" cy="1336.6" r="50.5"/>
			<circle class="st5" cx="2874.9" cy="1330.6" r="50.5"/>
			<circle class="st5" cx="3068.4" cy="1414.2" r="47.5"/>
			<circle class="st1" cx="1546" cy="1411.2" r="54.8"/>
			<circle class="st1" cx="3466.2" cy="1409.6" r="54.8"/>
			<circle class="st1" cx="3467.8" cy="259.8" r="54.8"/>
			<circle class="st1" cx="1547.6" cy="254.8" r="54.8"/>
			<circle class="st7" cx="2509.2" cy="1261" r="54.8"/>
		</g>
		<g>
			<path class="st5" d="M1176.2,2353.5c0,0,38.5-50.5,70.6-50.5v-2.2c-104.8-20.4-173.8-111.8-173.8-225.7
				c0-129.5,98.4-229.5,219.9-229.5c122.5,0,219.3,100,219.3,229.5c0,105.9-62,192.4-153.5,220.3v2.1c10.2,0,42.3,10.2,68.5,10.2
				c45.5,0,66.3-29,66.3-29l31.6,68.2c0,0-28.4,60.2-98.4,60.2c-65.8,0-93.1-41.9-161-41.9c-41.7,0-65.3,24.7-65.3,24.7
				L1176.2,2353.5z M1292.8,2203.1c80.2,0,110.7-61.8,110.7-127.9c0-66.1-32.6-127.9-110.7-127.9c-77.6,0-111.3,61.8-111.3,127.9
				C1181.6,2141.3,1210.5,2203.1,1292.8,2203.1z"/>
			<path class="st5" d="M1645.9,2152.6c0,54.3,14.4,75.2,54,75.2c39.6,0,54-21,54-75.2v-131.1h94.7v154.2
				c0,92.4-46,129.5-148.7,129.5c-102.7,0-148.7-37.1-148.7-129.5v-154.2h94.7V2152.6z"/>
			<path class="st5" d="M2012.3,1907.5c0,31.2-25.1,56.4-56.2,56.4s-56.2-25.3-56.2-56.4c0-31.2,25.1-56.4,56.2-56.4
				S2012.3,1876.4,2012.3,1907.5z M1907.4,2297.1h94.7v-275.7h-94.7V2297.1z"/>
			<path class="st5" d="M2149.8,2159c0,38.1,29.4,68.2,65.3,68.2c28.3,0,46-12.9,46-12.9l32.1,66.1c0,0-31,24.7-92,24.7
				c-79.2,0-151.9-64.5-151.9-145.1c0-81.1,72.2-146.7,151.9-146.7c61,0,92,25.8,92,25.8l-32.1,65c0,0-17.7-12.9-46-12.9
				C2179.2,2091.3,2149.8,2121.4,2149.8,2159z"/>
			<path class="st5" d="M2514.6,2153.1l143.4,144h-122L2426.3,2187v110.2h-94.7V1835h94.7v282.7l95.8-96.2h123L2514.6,2153.1z"/>
			<path class="st5" d="M2981.6,2178.4l42.8,86c0,0-49.2,40.8-145,40.8c-124.6,0-239.1-102.1-239.1-228.9
				c0-127.4,113.9-230.5,239.1-230.5c95.8,0,145,40.8,145,40.8l-42.8,86c0,0-35.3-27.4-86.7-27.4c-101.1,0-145.5,70.9-145.5,130
				c0,59.6,44.4,130.6,145.5,130.6C2946.3,2205.8,2981.6,2178.4,2981.6,2178.4z"/>
			<path class="st5" d="M3062.9,1835h94.7v462.1h-94.7V1835z"/>
			<path class="st5" d="M3326.6,1907.5c0,31.2-25.1,56.4-56.2,56.4c-31,0-56.2-25.3-56.2-56.4c0-31.2,25.1-56.4,56.2-56.4
				C3301.4,1851.1,3326.6,1876.4,3326.6,1907.5z M3221.7,2297.1h94.7v-275.7h-94.7V2297.1z"/>
			<path class="st5" d="M3464,2159c0,38.1,29.4,68.2,65.3,68.2c28.3,0,46-12.9,46-12.9l32.1,66.1c0,0-31,24.7-92,24.7
				c-79.2,0-151.9-64.5-151.9-145.1c0-81.1,72.2-146.7,151.9-146.7c61,0,92,25.8,92,25.8l-32.1,65c0,0-17.7-12.9-46-12.9
				C3493.5,2091.3,3464,2121.4,3464,2159z"/>
			<path class="st5" d="M3828.8,2153.1l143.4,144h-122L3740.6,2187v110.2h-94.7V1835h94.7v282.7l95.8-96.2h123L3828.8,2153.1z"/>
		</g>
		<g>
			<path class="st5" d="M338.6,2782H206.4l-26.1,61.2h-50.6l118.9-264.3h48.3l119.3,264.3H365L338.6,2782z M322.4,2743.5L272.5,2628
				l-49.5,115.5H322.4z"/>
			<path class="st5" d="M797,2843.2l-0.4-175.2l-86.8,145h-21.9L601,2670.3v172.9h-46.8v-264.3h40.4l105,175.2l103.1-175.2H843
				l0.4,264.3H797z"/>
			<path class="st5" d="M943.1,2816.2c-20.4-20.5-30.6-49.9-30.6-88.2v-149.1h49.1v147.3c0,51.9,22.4,77.8,67.2,77.8
				c44.6,0,66.8-25.9,66.8-77.8v-147.3h48.3V2728c0,38.3-10.1,67.6-30.4,88.2c-20.3,20.5-48.6,30.8-85.1,30.8
				C991.9,2847,963.5,2836.7,943.1,2816.2z"/>
			<path class="st5" d="M1235.5,2838.3c-19-5.8-34-13.5-45.1-23l17-38.1c10.8,8.6,24.1,15.5,39.8,21c15.7,5.4,31.5,8.1,47.4,8.1
				c19.6,0,34.3-3.1,44-9.4c9.7-6.3,14.5-14.6,14.5-24.9c0-7.5-2.7-13.8-8.1-18.7c-5.4-4.9-12.3-8.7-20.6-11.5
				c-8.3-2.8-19.6-5.9-34-9.4c-20.1-4.8-36.4-9.6-48.9-14.3c-12.5-4.8-23.2-12.3-32.1-22.5c-8.9-10.2-13.4-24-13.4-41.3
				c0-14.6,4-27.9,11.9-39.8c7.9-12,19.9-21.5,35.9-28.5c16-7,35.6-10.6,58.7-10.6c16.1,0,32,2,47.6,6c15.6,4,29.1,9.8,40.4,17.4
				l-15.5,38.1c-11.6-6.8-23.7-12-36.2-15.5c-12.6-3.5-24.8-5.3-36.6-5.3c-19.4,0-33.8,3.3-43.2,9.8c-9.4,6.5-14.2,15.2-14.2,26.1
				c0,7.5,2.7,13.7,8.1,18.5c5.4,4.8,12.3,8.6,20.6,11.3c8.3,2.8,19.6,5.9,34,9.4c19.6,4.5,35.7,9.2,48.3,14.2
				c12.6,4.9,23.3,12.4,32.3,22.5c8.9,10.1,13.4,23.7,13.4,40.8c0,14.6-4,27.8-11.9,39.6c-7.9,11.8-20,21.3-36.1,28.3
				c-16.1,7-35.7,10.6-58.9,10.6C1274.2,2847,1254.5,2844.1,1235.5,2838.3z"/>
			<path class="st5" d="M1450.1,2578.9h49.1v264.3h-49.1V2578.9z"/>
			<path class="st5" d="M1620.6,2829.4c-21.5-11.7-38.4-27.9-50.6-48.5c-12.2-20.6-18.3-43.9-18.3-69.9c0-25.9,6.2-49.2,18.5-69.8
				c12.3-20.6,29.3-36.8,50.8-48.5c21.5-11.7,45.6-17.6,72.3-17.6c21.6,0,41.4,3.8,59.3,11.3c17.9,7.6,33,18.5,45.3,32.8l-31.7,29.8
				c-19.1-20.6-42.7-31-70.6-31c-18.1,0-34.4,4-48.7,11.9c-14.3,7.9-25.5,18.9-33.6,33c-8.1,14.1-12.1,30.1-12.1,47.9
				c0,17.9,4,33.9,12.1,48c8.1,14.1,19.3,25.1,33.6,33c14.3,7.9,30.6,11.9,48.7,11.9c27.9,0,51.5-10.4,70.6-31.3l31.7,30.2
				c-12.3,14.3-27.5,25.3-45.5,32.8c-18,7.6-37.8,11.3-59.5,11.3C1666.2,2847,1642.1,2841.1,1620.6,2829.4z"/>
			<path class="st5" d="M2117.8,2590.2c17,7.6,30,18.4,39.1,32.5c9.1,14.1,13.6,30.8,13.6,50.2c0,19.1-4.5,35.8-13.6,50
				c-9.1,14.2-22.1,25.1-39.1,32.7c-17,7.6-36.9,11.3-59.8,11.3h-59.7v76.3h-49.1v-264.3H2058
				C2080.9,2578.9,2100.9,2582.7,2117.8,2590.2z M2104.4,2711.8c11.1-9.1,16.6-22,16.6-38.9s-5.5-29.8-16.6-38.9
				c-11.1-9.1-27.3-13.6-48.7-13.6h-57.4v105h57.4C2077.1,2725.4,2093.4,2720.9,2104.4,2711.8z"/>
			<path class="st5" d="M2219.6,2578.9h49.1v222.8h138.2v41.5h-187.3V2578.9z"/>
			<path class="st5" d="M2619.1,2782h-132.1l-26.1,61.2h-50.6l118.9-264.3h48.3l119.3,264.3h-51.3L2619.1,2782z M2602.8,2743.5
				L2553,2628l-49.5,115.5H2602.8z"/>
			<path class="st5" d="M2828.6,2749.9v93.3h-49.1v-92.5l-103.8-171.8h52.5l77.4,128.8l78.2-128.8h48.3L2828.6,2749.9z"/>
			<path class="st5" d="M2960.4,2578.9h49.1v264.3h-49.1V2578.9z"/>
			<path class="st5" d="M3315.7,2578.9v264.3h-40.4l-145.7-179v179h-48.7v-264.3h40.4l145.7,179v-179H3315.7z"/>
			<path class="st5" d="M3567.1,2708h46.4v105.3c-13.6,10.8-29.5,19.1-47.6,24.9c-18.1,5.8-36.8,8.7-55.9,8.7
				c-26.9,0-51.2-5.9-72.9-17.6c-21.7-11.7-38.6-27.9-51-48.5c-12.3-20.6-18.5-43.9-18.5-69.9c0-25.9,6.2-49.2,18.5-69.8
				c12.3-20.6,29.4-36.8,51.2-48.5c21.8-11.7,46.3-17.6,73.4-17.6c22.1,0,42.3,3.7,60.4,10.9c18.1,7.3,33.4,18,45.7,32.1l-31,30.2
				c-20.1-20.1-44.4-30.2-72.9-30.2c-18.6,0-35.2,3.9-49.6,11.7c-14.5,7.8-25.8,18.8-34,32.8c-8.2,14.1-12.3,30.2-12.3,48.3
				c0,17.6,4.1,33.5,12.3,47.6c8.2,14.1,19.5,25.2,34,33.2c14.5,8.1,30.9,12.1,49.3,12.1c20.6,0,38.8-4.5,54.4-13.6V2708z"/>
			<path class="st5" d="M3962.8,2708h46.4v105.3c-13.6,10.8-29.5,19.1-47.6,24.9c-18.1,5.8-36.8,8.7-55.9,8.7
				c-26.9,0-51.2-5.9-72.9-17.6c-21.7-11.7-38.6-27.9-51-48.5c-12.3-20.6-18.5-43.9-18.5-69.9c0-25.9,6.2-49.2,18.5-69.8
				c12.3-20.6,29.4-36.8,51.2-48.5c21.8-11.7,46.3-17.6,73.4-17.6c22.1,0,42.3,3.7,60.4,10.9c18.1,7.3,33.4,18,45.7,32.1l-31,30.2
				c-20.1-20.1-44.4-30.2-72.9-30.2c-18.6,0-35.2,3.9-49.6,11.7c-14.5,7.8-25.8,18.8-34,32.8c-8.2,14.1-12.3,30.2-12.3,48.3
				c0,17.6,4.1,33.5,12.3,47.6c8.2,14.1,19.5,25.2,34,33.2c14.5,8.1,30.9,12.1,49.3,12.1c20.6,0,38.8-4.5,54.4-13.6V2708z"/>
			<path class="st5" d="M4245.2,2782h-132.1l-26.1,61.2h-50.6l118.9-264.3h48.3l119.3,264.3h-51.3L4245.2,2782z M4229,2743.5
				l-49.8-115.5l-49.5,115.5H4229z"/>
			<path class="st5" d="M4599.4,2843.2L4599,2668l-86.8,145h-21.9l-86.8-142.7v172.9h-46.8v-264.3h40.4l105,175.2l103.1-175.2h40.4
				l0.4,264.3H4599.4z"/>
			<path class="st5" d="M4915.4,2802v41.2h-198.2v-264.3h192.9v41.2h-143.9v68.7h127.6v40.4h-127.6v72.9H4915.4z"/>
		</g>
	</g>
</g>
<g id="Layer_3">
</g>
</svg>
