<?xml version="1.0" encoding="utf-8"?>
<!-- Generator: Adobe Illustrator 25.2.3, SVG Export Plug-In . SVG Version: 6.00 Build 0)  -->
<svg version="1.1" xmlns="http://www.w3.org/2000/svg" xmlns:xlink="http://www.w3.org/1999/xlink" x="0px" y="0px"
	 viewBox="0 0 5113.2 3045.1" style="enable-background:new 0 0 5113.2 3045.1;" xml:space="preserve">
<style type="text/css">
	.st0{fill:#43434F;}
	.st1{fill:#393943;}
	.st2{fill:#F04E3E;}
	.st3{fill:#FCCA64;}
	.st4{fill:#43ADA5;}
	.st5{fill:#FFFFFF;}
	.st6{fill:#FFFFFF;stroke:#43434F;stroke-miterlimit:10;}
	.st7{fill:#282830;}
</style>
<g id="Layer_1">
	
		<image style="display:none;overflow:visible;" width="500" height="500" xlink:href="3AD2368D.png"  transform="matrix(0.75 0 0 0.75 219.8707 0.4945)">
	</image>
	<g id="Layer_2">
		<g>
			<path class="st0" d="M1439.9,252.1c0-99,113.8-103.9,113.8-103.9s1781.6,0,1930.1,0c94.2,0,123.7,83.9,123.7,163.3
				c0,73.6-0.1,1019.3,0,1088.8c0.2,91.6-91.6,153.4-140.3,148.5c-106.4-9.9-1760.1,5-1883.8,5s-138.6-59.4-143.5-133.6
				C1434.9,1345.8,1439.9,252.1,1439.9,252.1z"/>
			<path class="st1" d="M1746.7,1234.4c19.8-39.6,79-72.4,155.9-72.8c89.1-0.4,1185.3-0.5,1264.4,0.1c34.7,0.2,91.6,38,96.5,102.4
				c4.9,64.3,34.6,281.5,34.6,281.5l-1571.3,8L1746.7,1234.4z"/>
			<path class="st2" d="M1592.3,808.8h1842c0,0,0,175.7,0,200.4c0,24.7-1,29.7-25.7,32.2c-24.7,2.5-1771.7,0-1791.5,0
				c-19.8,0-25.2-21-24.7-44.5C1592.6,984.3,1592.3,808.8,1592.3,808.8z"/>
			<path class="st3" d="M1592.3,604.1h1842c0,0,0,175.7,0,200.4c0,24.7-1,29.7-25.8,32.2c-24.7,2.5-1771.7,0-1791.5,0
				c-19.8,0-24.8,1.1-24.7-44.5C1592.3,779.5,1592.3,604.1,1592.3,604.1z"/>
			<path class="st4" d="M3434.3,618.7h-1842c0,0,0-175.7,0-200.4c0-24.7,1-29.7,25.8-32.2s1771.7,0,1791.5,0s24.8-1.1,24.7,44.5
				C3434.3,443.3,3434.3,618.7,3434.3,618.7z"/>
			<path class="st0" d="M1946.2,490.6c36.1,0,1102.3-1.2,1125.2,0s50.5,3.6,50.5,67.4s0,298.4,0,324.9s-13.2,51.7-51.7,51.7
				s-1118,0-1118,0s-54.8,3.6-54.8-54.8s0-311.1,0-344.8S1914.9,490.6,1946.2,490.6z"/>
			<path class="st5" d="M2741.3,809.3h-467.4c-0.9,0-1.6-0.7-1.6-1.6V617.1c0-0.9,0.7-1.6,1.6-1.6h467.4c0.9,0,1.6,0.7,1.6,1.6
				v190.6C2742.9,808.6,2742.2,809.3,2741.3,809.3z"/>
			<circle class="st6" cx="2925.4" cy="705.8" r="101.1"/>
			<circle class="st6" cx="2090.1" cy="706.3" r="101.1"/>
			<circle class="st5" cx="1947.7" cy="1412.1" r="50.2"/>
			<circle class="st5" cx="2140.7" cy="1336.6" r="50.5"/>
			<circle class="st5" cx="2874.9" cy="1330.6" r="50.5"/>
			<circle class="st5" cx="3068.4" cy="1414.2" r="47.5"/>
			<circle class="st1" cx="1546" cy="1411.2" r="54.8"/>
			<circle class="st1" cx="3466.2" cy="1409.6" r="54.8"/>
			<circle class="st1" cx="3467.8" cy="259.8" r="54.8"/>
			<circle class="st1" cx="1547.6" cy="254.8" r="54.8"/>
			<circle class="st7" cx="2509.2" cy="1261" r="54.8"/>
		</g>
		<g>
			<path class="st5" d="M929,2196.1c0,0,37-48.4,67.9-48.4v-2.1c-100.8-19.5-167.2-107-167.2-216.1c0-124,94.7-219.7,211.4-219.7
				c117.8,0,210.9,95.7,210.9,219.7c0,101.3-59.7,184.2-147.6,210.9v2.1c9.8,0,40.6,9.8,65.8,9.8c43.7,0,63.8-27.8,63.8-27.8
				l30.4,65.3c0,0-27.3,57.6-94.7,57.6c-63.3,0-89.5-40.1-154.8-40.1c-40.1,0-62.8,23.7-62.8,23.7L929,2196.1z M1041.2,2052.1
				c77.2,0,106.5-59.2,106.5-122.4c0-63.3-31.4-122.4-106.5-122.4c-74.6,0-107,59.2-107,122.4
				C934.2,1992.9,961.9,2052.1,1041.2,2052.1z"/>
			<path class="st5" d="M1620.9,1991.4c0,104.9-57.6,158.4-165.6,158.4c-108,0-165.6-53.5-165.6-158.4v-273.7h96.7v245.4
				c0,71,21.6,91.6,68.9,91.6c47.3,0,68.9-20.6,68.9-91.6v-245.4h96.7V1991.4z"/>
			<path class="st5" d="M1774.2,2142.1h-96.7v-424.4h96.7V2142.1z"/>
			<path class="st5" d="M2128.6,2028.4l41.2,82.3c0,0-47.3,39.1-139.4,39.1c-119.9,0-230-97.7-230-219.2
				c0-121.9,109.6-220.7,230-220.7c92.1,0,139.4,39.1,139.4,39.1l-41.2,82.3c0,0-34-26.2-83.3-26.2c-97.2,0-139.9,67.9-139.9,124.5
				c0,57.1,42.7,125,139.9,125C2094.6,2054.6,2128.6,2028.4,2128.6,2028.4z"/>
			<path class="st5" d="M2459.9,2142.1L2303.5,1962v180.1h-96.7v-424.4h96.7v173.4l145.6-173.4h117.3l-170.8,201.1l197.5,223.3
				H2459.9z"/>
			<path class="st5" d="M2904.3,2028.4l41.2,82.3c0,0-47.3,39.1-139.4,39.1c-119.9,0-230-97.7-230-219.2
				c0-121.9,109.6-220.7,230-220.7c92.1,0,139.4,39.1,139.4,39.1l-41.2,82.3c0,0-34-26.2-83.3-26.2c-97.2,0-139.9,67.9-139.9,124.5
				c0,57.1,42.7,125,139.9,125C2870.3,2054.6,2904.3,2028.4,2904.3,2028.4z"/>
			<path class="st5" d="M3079.2,2057.2h146.1v84.9h-242.8v-424.4h96.7V2057.2z"/>
			<path class="st5" d="M3369.8,2142.1h-96.7v-424.4h96.7V2142.1z"/>
			<path class="st5" d="M3724.2,2028.4l41.2,82.3c0,0-47.3,39.1-139.4,39.1c-119.9,0-230-97.7-230-219.2
				c0-121.9,109.6-220.7,230-220.7c92.1,0,139.4,39.1,139.4,39.1l-41.2,82.3c0,0-34-26.2-83.3-26.2c-97.2,0-139.9,67.9-139.9,124.5
				c0,57.1,42.7,125,139.9,125C3690.3,2054.6,3724.2,2028.4,3724.2,2028.4z"/>
			<path class="st5" d="M4055.5,2142.1L3899.1,1962v180.1h-96.7v-424.4h96.7v173.4l145.6-173.4H4162l-170.8,201.1l197.5,223.3
				H4055.5z"/>
		</g>
		<g>
			<path class="st5" d="M617.1,2488.7H506.5l-21.8,51.2h-42.3l99.5-221.1h40.4l99.8,221.1h-43L617.1,2488.7z M603.5,2456.5
				l-41.7-96.7l-41.4,96.7H603.5z"/>
			<path class="st5" d="M1000.6,2539.9l-0.3-146.6l-72.7,121.3h-18.3l-72.7-119.4v144.7h-39.2v-221.1h33.8l87.8,146.6l86.2-146.6
				h33.8l0.3,221.1H1000.6z"/>
			<path class="st5" d="M1122.9,2517.3c-17.1-17.2-25.6-41.7-25.6-73.8v-124.8h41.1V2442c0,43.4,18.7,65.1,56.2,65.1
				c37.3,0,55.9-21.7,55.9-65.1v-123.2h40.4v124.8c0,32-8.5,56.6-25.4,73.8c-17,17.2-40.7,25.7-71.2,25.7
				C1163.7,2543.1,1139.9,2534.5,1122.9,2517.3z"/>
			<path class="st5" d="M1367.5,2535.8c-15.9-4.8-28.5-11.3-37.8-19.3l14.2-31.9c9.1,7.2,20.2,13,33.3,17.5
				c13.2,4.5,26.4,6.8,39.6,6.8c16.4,0,28.7-2.6,36.8-7.9c8.1-5.3,12.2-12.2,12.2-20.8c0-6.3-2.3-11.5-6.8-15.6
				c-4.5-4.1-10.3-7.3-17.2-9.6c-6.9-2.3-16.4-4.9-28.4-7.9c-16.9-4-30.5-8-40.9-12c-10.4-4-19.4-10.3-26.9-18.8
				c-7.5-8.5-11.2-20.1-11.2-34.6c0-12.2,3.3-23.3,10-33.3c6.6-10,16.6-18,30-23.8c13.4-5.9,29.7-8.8,49.1-8.8
				c13.5,0,26.7,1.7,39.8,5.1c13.1,3.4,24.3,8.2,33.8,14.5l-13,31.9c-9.7-5.7-19.8-10-30.3-13c-10.5-2.9-20.7-4.4-30.6-4.4
				c-16.2,0-28.3,2.7-36.2,8.2c-7.9,5.5-11.8,12.7-11.8,21.8c0,6.3,2.3,11.5,6.8,15.5c4.5,4,10.3,7.2,17.2,9.5
				c6.9,2.3,16.4,5,28.4,7.9c16.4,3.8,29.9,7.7,40.4,11.8c10.5,4.1,19.5,10.4,27,18.8c7.5,8.4,11.2,19.8,11.2,34.1
				c0,12.2-3.3,23.3-10,33.2c-6.6,9.9-16.7,17.8-30.2,23.7c-13.5,5.9-29.9,8.8-49.3,8.8C1399.9,2543.1,1383.4,2540.6,1367.5,2535.8z
				"/>
			<path class="st5" d="M1547.1,2318.8h41.1v221.1h-41.1V2318.8z"/>
			<path class="st5" d="M1689.8,2528.4c-18-9.8-32.1-23.3-42.3-40.6c-10.2-17.3-15.3-36.8-15.3-58.4c0-21.7,5.2-41.2,15.5-58.4
				c10.3-17.3,24.5-30.8,42.5-40.6c18-9.8,38.2-14.7,60.5-14.7c18.1,0,34.6,3.2,49.6,9.5c15,6.3,27.6,15.5,37.9,27.5l-26.5,25
				c-16-17.3-35.7-25.9-59.1-25.9c-15.2,0-28.7,3.3-40.8,10c-12,6.6-21.4,15.8-28.1,27.6c-6.7,11.8-10.1,25.2-10.1,40.1
				c0,15,3.4,28.3,10.1,40.1c6.7,11.8,16.1,21,28.1,27.6c12,6.6,25.6,9.9,40.8,9.9c23.4,0,43.1-8.7,59.1-26.2l26.5,25.3
				c-10.3,12-23,21.2-38.1,27.5c-15.1,6.3-31.6,9.5-49.8,9.5C1727.9,2543.1,1707.8,2538.2,1689.8,2528.4z"/>
			<path class="st5" d="M1964.7,2318.8h41.1v186.4h115.6v34.7h-156.7V2318.8z"/>
			<path class="st5" d="M2154,2318.8h41.1v221.1H2154V2318.8z"/>
			<path class="st5" d="M2273.9,2535.8c-15.9-4.8-28.5-11.3-37.8-19.3l14.2-31.9c9.1,7.2,20.2,13,33.3,17.5
				c13.2,4.5,26.4,6.8,39.6,6.8c16.4,0,28.7-2.6,36.8-7.9c8.1-5.3,12.2-12.2,12.2-20.8c0-6.3-2.3-11.5-6.8-15.6
				c-4.5-4.1-10.3-7.3-17.2-9.6c-6.9-2.3-16.4-4.9-28.4-7.9c-16.9-4-30.5-8-40.9-12c-10.4-4-19.4-10.3-26.9-18.8
				c-7.5-8.5-11.2-20.1-11.2-34.6c0-12.2,3.3-23.3,10-33.3c6.6-10,16.6-18,30-23.8c13.4-5.9,29.7-8.8,49.1-8.8
				c13.5,0,26.7,1.7,39.8,5.1c13.1,3.4,24.3,8.2,33.8,14.5l-13,31.9c-9.7-5.7-19.8-10-30.3-13c-10.5-2.9-20.7-4.4-30.6-4.4
				c-16.2,0-28.3,2.7-36.2,8.2c-7.9,5.5-11.8,12.7-11.8,21.8c0,6.3,2.3,11.5,6.8,15.5s10.3,7.2,17.2,9.5c6.9,2.3,16.4,5,28.4,7.9
				c16.4,3.8,29.9,7.7,40.4,11.8c10.5,4.1,19.5,10.4,27,18.8c7.5,8.4,11.2,19.8,11.2,34.1c0,12.2-3.3,23.3-9.9,33.2
				c-6.6,9.9-16.7,17.8-30.2,23.7c-13.5,5.9-29.9,8.8-49.3,8.8C2306.2,2543.1,2289.8,2540.6,2273.9,2535.8z"/>
			<path class="st5" d="M2495.2,2353.5h-73.3v-34.7h187.6v34.7h-73.3v186.4h-41.1V2353.5z"/>
			<path class="st5" d="M2806.3,2505.5v34.4h-165.9v-221.1h161.4v34.4h-120.4v57.5h106.8v33.8h-106.8v61H2806.3z"/>
			<path class="st5" d="M3048.6,2318.8v221.1h-33.8l-121.9-149.7v149.7h-40.8v-221.1h33.8l121.9,149.7v-149.7H3048.6z"/>
			<path class="st5" d="M3108,2318.8h41.1v221.1H3108V2318.8z"/>
			<path class="st5" d="M3405.3,2318.8v221.1h-33.8l-121.9-149.7v149.7h-40.8v-221.1h33.8l121.9,149.7v-149.7H3405.3z"/>
			<path class="st5" d="M3615.7,2426.8h38.9v88.1c-11.4,9.1-24.6,16-39.8,20.9c-15.2,4.8-30.8,7.3-46.8,7.3
				c-22.5,0-42.9-4.9-61-14.7c-18.1-9.8-32.3-23.3-42.6-40.6c-10.3-17.3-15.5-36.8-15.5-58.4c0-21.7,5.2-41.2,15.5-58.4
				c10.3-17.3,24.6-30.8,42.8-40.6c18.2-9.8,38.7-14.7,61.4-14.7c18.5,0,35.4,3.1,50.5,9.2c15.2,6.1,27.9,15.1,38.2,26.9l-25.9,25.3
				c-16.9-16.8-37.2-25.3-61-25.3c-15.6,0-29.4,3.3-41.5,9.8c-12.1,6.5-21.6,15.7-28.4,27.5c-6.8,11.8-10.3,25.3-10.3,40.4
				c0,14.7,3.4,28,10.3,39.8c6.8,11.8,16.3,21.1,28.4,27.8c12.1,6.7,25.9,10.1,41.2,10.1c17.3,0,32.4-3.8,45.5-11.4V2426.8z"/>
			<path class="st5" d="M3946.7,2426.8h38.9v88.1c-11.4,9.1-24.6,16-39.8,20.9c-15.2,4.8-30.8,7.3-46.8,7.3
				c-22.5,0-42.9-4.9-61-14.7c-18.1-9.8-32.3-23.3-42.6-40.6c-10.3-17.3-15.5-36.8-15.5-58.4c0-21.7,5.2-41.2,15.5-58.4
				c10.3-17.3,24.6-30.8,42.8-40.6c18.2-9.8,38.7-14.7,61.4-14.7c18.5,0,35.4,3.1,50.5,9.2c15.2,6.1,27.9,15.1,38.2,26.9l-25.9,25.3
				c-16.9-16.8-37.2-25.3-61-25.3c-15.6,0-29.4,3.3-41.5,9.8c-12.1,6.5-21.6,15.7-28.4,27.5c-6.8,11.8-10.3,25.3-10.3,40.4
				c0,14.7,3.4,28,10.3,39.8c6.8,11.8,16.3,21.1,28.4,27.8c12.1,6.7,25.9,10.1,41.2,10.1c17.3,0,32.4-3.8,45.5-11.4V2426.8z"/>
			<path class="st5" d="M4183,2488.7h-110.6l-21.8,51.2h-42.3l99.5-221.1h40.4l99.8,221.1h-43L4183,2488.7z M4169.5,2456.5
				l-41.7-96.7l-41.4,96.7H4169.5z"/>
			<path class="st5" d="M4479.4,2539.9l-0.3-146.6l-72.7,121.3h-18.3l-72.7-119.4v144.7h-39.2v-221.1h33.8l87.8,146.6l86.2-146.6
				h33.8l0.3,221.1H4479.4z"/>
			<path class="st5" d="M4743.8,2505.5v34.4h-165.9v-221.1h161.4v34.4H4619v57.5h106.8v33.8H4619v61H4743.8z"/>
		</g>
	</g>
</g>
<g id="Layer_3">
</g>
</svg>
