<?xml version="1.0" encoding="UTF-8"?>
<svg xmlns="http://www.w3.org/2000/svg" xmlns:xlink="http://www.w3.org/1999/xlink" width="" height="" viewBox="0 0 150 149.999998" version="1.2">
<defs>
<clipPath id="clip1">
  <path d="M 66 22 L 131.480469 22 L 131.480469 114 L 66 114 Z M 66 22 "/>
</clipPath>
<clipPath id="clip2">
  <path d="M 20 50 L 62 50 L 62 140.261719 L 20 140.261719 Z M 20 50 "/>
</clipPath>
<clipPath id="clip3">
  <path d="M 47 9.761719 L 76 9.761719 L 76 55 L 47 55 Z M 47 9.761719 "/>
</clipPath>
</defs>
<g id="surface1">
<rect x="0" y="0" width="150" height="149.999998" style="fill:rgb(100%,100%,100%);fill-opacity:1;stroke:none;"/>
<rect x="0" y="0" width="150" height="149.999998" style="fill:rgb(100%,100%,100%);fill-opacity:1;stroke:none;"/>
<rect x="0" y="0" width="150" height="149.999998" style="fill:rgb(100%,100%,100%);fill-opacity:1;stroke:none;"/>
<g clip-path="url(#clip1)" clip-rule="nonzero">
<path style=" stroke:none;fill-rule:nonzero;fill:rgb(10.978699%,9.799194%,10.198975%);fill-opacity:1;" d="M 88.792969 22.359375 L 82.265625 77.574219 C 81.570312 77.460938 80.851562 77.410156 80.109375 77.429688 C 78.644531 77.464844 77.152344 77.753906 75.675781 78.289062 C 69.390625 80.5625 65.292969 86.515625 66.335938 91.839844 C 67.128906 95.910156 70.820312 98.640625 75.515625 98.640625 C 75.613281 98.640625 75.714844 98.640625 75.808594 98.640625 C 77.273438 98.605469 78.769531 98.316406 80.25 97.777344 C 85.3125 95.945312 89.128906 91.625 89.746094 86.988281 L 94.894531 43.371094 L 121.265625 57.421875 L 117.082031 92.859375 C 116.402344 92.753906 115.683594 92.707031 114.988281 92.726562 C 113.527344 92.761719 112.035156 93.046875 110.558594 93.582031 C 104.28125 95.855469 100.175781 101.808594 101.21875 107.140625 C 102.015625 111.207031 105.703125 113.941406 110.398438 113.941406 C 110.496094 113.941406 110.59375 113.9375 110.695312 113.9375 C 112.15625 113.902344 113.652344 113.613281 115.132812 113.074219 C 120.1875 111.246094 123.976562 106.945312 124.558594 102.355469 L 131.445312 44.09375 L 88.792969 22.359375 "/>
</g>
<g clip-path="url(#clip2)" clip-rule="nonzero">
<path style=" stroke:none;fill-rule:nonzero;fill:rgb(10.978699%,9.799194%,10.198975%);fill-opacity:1;" d="M 51.605469 67.28125 C 50.714844 66.578125 49.746094 65.902344 48.644531 65.207031 C 48.148438 64.894531 47.648438 64.597656 47.160156 64.320312 C 46.585938 63.996094 46.066406 63.726562 45.585938 63.484375 C 44.980469 63.179688 44.382812 62.890625 43.796875 62.605469 C 42.5625 62.011719 41.398438 61.449219 40.390625 60.835938 C 39.058594 60.039062 38.082031 59.164062 37.492188 58.234375 C 37.320312 57.96875 36.964844 57.230469 36.679688 56.640625 L 36.210938 55.683594 C 35.777344 54.792969 35.285156 53.789062 34.300781 52.472656 C 33.316406 51.164062 31.828125 50.414062 30.230469 50.414062 C 29.601562 50.414062 28.976562 50.53125 28.390625 50.757812 C 28.164062 50.84375 27.9375 50.945312 27.710938 51.070312 C 25.394531 52.332031 24.132812 55.09375 24.644531 57.789062 L 36.511719 110.09375 C 35.292969 110.234375 34.0625 110.539062 32.839844 111.007812 C 31.03125 111.703125 29.296875 112.726562 27.683594 114.054688 C 20.839844 119.691406 18.3125 128.90625 21.933594 135.039062 C 23.851562 138.277344 27.230469 140.136719 31.207031 140.136719 C 32.917969 140.136719 34.664062 139.796875 36.40625 139.128906 C 38.21875 138.433594 39.957031 137.40625 41.574219 136.078125 C 47.09375 131.523438 49.941406 124.472656 48.652344 118.5 L 38.1875 72.375 C 38.738281 72.574219 39.277344 72.761719 39.8125 72.945312 C 40.378906 73.144531 40.929688 73.332031 41.421875 73.511719 L 42.714844 74.015625 C 43.210938 74.226562 43.589844 74.394531 43.925781 74.558594 C 44.714844 74.933594 45.484375 75.351562 46.222656 75.800781 C 49.425781 77.738281 51.703125 80.230469 53 83.238281 C 54.410156 86.390625 54.757812 90.46875 53.980469 94.75 C 53.691406 96.382812 54.625 97.972656 56.148438 98.445312 C 56.804688 98.644531 57.507812 98.625 58.175781 98.371094 C 59.136719 98 59.859375 97.203125 60.15625 96.195312 C 61.855469 90.546875 61.964844 84.761719 60.460938 79.925781 C 58.988281 75.089844 55.929688 70.722656 51.605469 67.28125 "/>
</g>
<g clip-path="url(#clip3)" clip-rule="nonzero">
<path style=" stroke:none;fill-rule:nonzero;fill:rgb(10.978699%,9.799194%,10.198975%);fill-opacity:1;" d="M 73.3125 21.882812 C 72.996094 21.390625 72.636719 20.898438 72.21875 20.378906 C 72.027344 20.144531 71.832031 19.914062 71.640625 19.699219 C 71.414062 19.445312 71.207031 19.226562 71.011719 19.027344 C 70.765625 18.78125 70.523438 18.539062 70.289062 18.304688 C 69.785156 17.808594 69.308594 17.339844 68.921875 16.875 C 68.40625 16.261719 68.078125 15.675781 67.941406 15.121094 C 67.902344 14.964844 67.851562 14.546875 67.8125 14.210938 L 67.742188 13.667969 C 67.675781 13.164062 67.605469 12.589844 67.34375 11.785156 C 67.082031 10.984375 66.484375 10.371094 65.703125 10.105469 C 65.394531 10 65.074219 9.953125 64.75 9.964844 C 64.625 9.96875 64.5 9.980469 64.367188 10.003906 C 63.03125 10.234375 61.957031 11.367188 61.757812 12.765625 L 58.855469 40.21875 C 58.238281 40.082031 57.589844 40.027344 56.914062 40.050781 C 55.917969 40.089844 54.90625 40.296875 53.902344 40.679688 C 49.628906 42.28125 46.867188 46.347656 47.613281 49.9375 C 48.007812 51.835938 49.347656 53.300781 51.285156 53.964844 C 52.117188 54.25 53.027344 54.375 53.984375 54.34375 C 54.984375 54.304688 56 54.09375 57.007812 53.714844 C 60.453125 52.417969 63.007812 49.460938 63.375 46.332031 L 65.933594 22.128906 C 66.167969 22.316406 66.398438 22.496094 66.628906 22.675781 C 66.875 22.867188 67.109375 23.050781 67.320312 23.21875 L 67.863281 23.679688 C 68.070312 23.867188 68.230469 24.011719 68.363281 24.144531 C 68.6875 24.460938 68.992188 24.789062 69.277344 25.132812 C 70.515625 26.613281 71.210938 28.203125 71.34375 29.886719 C 71.507812 31.65625 71 33.699219 69.910156 35.65625 C 69.5 36.402344 69.6875 37.332031 70.351562 37.816406 C 70.640625 38.023438 70.988281 38.132812 71.351562 38.121094 C 71.882812 38.097656 72.367188 37.832031 72.679688 37.390625 C 74.445312 34.917969 75.457031 32.121094 75.53125 29.515625 C 75.613281 26.914062 74.847656 24.28125 73.3125 21.882812 "/>
</g>
</g>
</svg>
