<?xml version="1.0" standalone="no"?>
<!DOCTYPE svg PUBLIC "-//W3C//DTD SVG 20010904//EN"
 "http://www.w3.org/TR/2001/REC-SVG-20010904/DTD/svg10.dtd">
<svg version="1.0" xmlns="http://www.w3.org/2000/svg"
 width="586.000000pt" height="586.000000pt" viewBox="0 0 586.000000 586.000000"
 preserveAspectRatio="xMidYMid meet">
<metadata>
Created by potrace 1.14, written by Peter Selinger 2001-2017
</metadata>
<g transform="translate(0.000000,586.000000) scale(0.100000,-0.100000)"
fill="#000000" stroke="none">
<path d="M287 4858 c-124 -17 -212 -74 -252 -161 -29 -61 -27 57 -29 -1794 -1
-1014 2 -1455 10 -1510 14 -101 47 -174 96 -219 75 -68 78 -68 416 -66 167 1
308 4 312 7 4 3 11 33 15 67 4 35 9 70 10 78 1 8 6 49 10 90 4 41 9 83 10 92
2 9 6 45 10 79 4 35 8 66 10 69 1 3 6 28 9 55 4 28 9 57 11 65 2 8 7 29 10 46
11 69 66 217 99 268 22 35 51 64 81 82 l46 27 1757 0 c1599 1 1760 0 1787 -15
36 -19 74 -59 104 -110 37 -61 104 -264 126 -376 2 -13 7 -32 10 -42 3 -10 8
-29 10 -42 3 -13 9 -45 15 -73 6 -27 12 -59 14 -70 17 -87 49 -235 57 -260 l9
-30 252 -2 c407 -4 484 24 534 192 17 56 18 154 19 1615 1 1247 -2 1571 -12
1634 -24 143 -87 236 -192 284 l-55 25 -2631 1 c-1448 1 -2653 -2 -2678 -6z"/>
<path d="M2207 2033 c-1 0 -137 -4 -302 -7 -544 -12 -685 -19 -733 -37 -91
-35 -129 -134 -177 -464 -4 -22 -8 -51 -10 -64 -3 -14 -7 -54 -11 -90 -3 -36
-8 -74 -10 -86 -6 -29 -18 -192 -19 -245 l0 -45 1555 3 c2037 4 2468 6 2474
13 4 3 1 30 -4 60 -6 30 -13 70 -16 89 -32 196 -113 544 -150 641 -32 85 -73
150 -115 182 -38 28 -80 35 -254 44 -94 4 -2224 11 -2228 6z"/>
</g>
</svg>
